<svg width="0.4643em" height="1em" viewBox="0 0 65 140" fill="none" xmlns="http://www.w3.org/2000/svg">
<path d="M58.272 79.492C59.904 82.372 60.768 85.54 60.768 88.804C60.768 92.068 59.904 95.14 58.272 98.116C56.736 100.804 54.624 103.204 51.936 105.316C46.56 109.348 39.648 111.556 32.256 111.556C24.864 111.556 17.952 109.348 12.672 105.316C9.888 103.204 7.776 100.804 6.24 98.116C4.608 95.14 3.84 92.068 3.84 88.804C3.84 85.54 4.608 82.372 6.24 79.492C7.776 76.708 9.888 74.308 12.672 72.292C13.536 71.62 14.496 70.948 15.456 70.372C15.264 70.276 15.072 70.084 14.88 69.988C12.48 68.068 10.56 65.86 9.216 63.364C7.776 60.676 7.008 57.796 7.008 54.82C7.008 51.844 7.776 48.964 9.216 46.276C10.56 43.78 12.48 41.572 14.88 39.748C19.68 36.004 25.92 33.988 32.448 33.988C38.976 33.988 45.216 36.004 49.92 39.748C52.416 41.572 54.336 43.78 55.68 46.276C57.12 48.964 57.888 51.844 57.888 54.82C57.888 57.796 57.12 60.676 55.68 63.364C54.336 65.86 52.416 68.068 49.92 69.988C49.728 70.18 49.44 70.372 49.248 70.468C50.208 71.044 51.072 71.62 51.936 72.292C54.624 74.308 56.736 76.708 58.272 79.492ZM20.832 47.332C18.144 49.444 16.608 52.036 16.608 54.82C16.608 57.604 18.144 60.292 20.832 62.404C23.904 64.804 28.032 66.052 32.448 66.052C36.864 66.052 40.992 64.804 44.064 62.404C46.752 60.292 48.288 57.604 48.288 54.82C48.288 52.036 46.752 49.444 44.064 47.332C40.992 44.932 36.864 43.588 32.448 43.588C28.032 43.588 23.904 44.932 20.832 47.332ZM46.08 97.636C49.344 95.14 51.168 92.068 51.168 88.804C51.168 85.54 49.344 82.372 46.08 79.972C42.432 77.188 37.536 75.652 32.256 75.652C26.976 75.652 22.08 77.188 18.432 79.972C15.168 82.372 13.44 85.54 13.44 88.804C13.44 92.068 15.168 95.14 18.432 97.636C22.08 100.42 26.976 101.956 32.256 101.956C37.536 101.956 42.432 100.42 46.08 97.636Z" fill="currentColor"/>
</svg>

