<svg width="0.4643em" height="1em" viewBox="0 0 65 140" fill="none" xmlns="http://www.w3.org/2000/svg">
<path d="M6.048 68.74C4.608 65.572 3.84 62.212 3.84 58.756C3.84 55.396 4.608 52.036 6.048 48.868C7.488 45.892 9.408 43.204 12 40.996C17.088 36.292 23.904 33.796 31.104 33.796C38.208 33.796 45.024 36.292 50.112 40.996C52.704 43.204 54.624 45.892 56.064 48.868C57.024 50.98 57.696 53.188 58.08 55.492C60.288 62.404 60.864 74.884 59.328 82.372C57.504 91.588 53.28 99.268 47.136 104.548C40.992 109.828 33.408 112.42 25.152 112.036C18.528 111.748 12.288 108.676 8.64 103.972C7.008 101.86 7.392 98.788 9.504 97.252C11.616 95.62 14.592 96.004 16.224 98.116C18.528 101.092 22.56 102.244 25.632 102.436C31.392 102.724 36.672 100.9 40.896 97.252C45.312 93.412 48.48 87.556 50.016 80.356C50.208 79.204 50.4 77.86 50.496 76.324C50.4 76.42 50.208 76.516 50.112 76.612C45.024 81.22 38.208 83.812 31.104 83.812C23.904 83.812 17.088 81.22 12 76.612C9.408 74.404 7.488 71.716 6.048 68.74ZM31.104 43.396C21.312 43.396 13.44 50.308 13.44 58.756C13.44 67.3 21.312 74.212 31.104 74.212C40.8 74.212 48.672 67.3 48.672 58.756C48.672 58.372 48.672 57.988 48.576 57.604C48.48 57.124 48.48 56.74 48.48 56.26C47.04 48.964 39.744 43.396 31.104 43.396Z" fill="currentColor"/>
</svg>

