<svg width="0.5286em" height="1em" viewBox="0 0 74 140" fill="none" xmlns="http://www.w3.org/2000/svg">
<path d="M36.672 111.94C32.16 111.94 27.744 110.788 23.616 108.676C19.68 106.66 16.128 103.78 13.152 100.132C7.104 92.836 3.84 83.14 3.84 72.868C3.84 62.692 7.104 52.996 13.152 45.7C16.128 42.052 19.68 39.172 23.616 37.156C27.744 34.948 32.16 33.892 36.672 33.892C41.28 33.892 45.696 34.948 49.824 37.156C53.76 39.172 57.312 42.052 60.288 45.7C66.24 52.996 69.6 62.692 69.6 72.868C69.6 83.14 66.24 92.836 60.288 100.132C57.312 103.78 53.76 106.66 49.824 108.676C45.696 110.788 41.28 111.94 36.672 111.94ZM36.672 43.492C30.72 43.492 24.96 46.468 20.544 51.748C15.936 57.316 13.44 64.9 13.44 72.868C13.44 80.932 15.936 88.42 20.544 93.988C24.96 99.364 30.72 102.34 36.672 102.34C42.72 102.34 48.48 99.364 52.8 93.988C57.408 88.42 60 80.932 60 72.868C60 64.9 57.408 57.316 52.8 51.748C48.48 46.468 42.72 43.492 36.672 43.492Z" fill="currentColor"/>
</svg>
