<svg width="0.45em" height="1em" viewBox="0 0 63 140" fill="none" xmlns="http://www.w3.org/2000/svg">
<path d="M53.76 110.5H8.64C6.72 110.5 4.896 109.348 4.224 107.428C3.456 105.604 3.936 103.492 5.472 102.148L38.112 72.292C42.048 68.74 44.448 65.572 45.6 62.5C46.368 60.388 46.56 58.276 46.176 55.492C45.696 52.036 44.064 49.156 41.376 46.948C38.784 44.836 35.424 43.588 31.776 43.492C28.128 43.396 24.96 44.356 22.368 46.276C19.872 48.196 18.144 51.076 17.376 54.628C16.8 57.22 14.208 58.852 11.616 58.276C9.024 57.7 7.392 55.204 7.968 52.612C9.216 46.852 12.192 42.052 16.512 38.692C20.832 35.428 26.208 33.7 32.064 33.892C37.824 34.084 43.296 36.004 47.52 39.556C49.728 41.284 51.552 43.492 52.896 45.892C54.336 48.388 55.296 51.172 55.68 54.148C56.064 56.836 56.352 61.06 54.624 65.86C52.896 70.372 49.632 74.788 44.64 79.396L21.024 100.9H53.76C56.448 100.9 58.56 103.108 58.56 105.7C58.56 108.388 56.448 110.5 53.76 110.5Z" fill="currentColor"/>
</svg>

