<svg width="0.4643em" height="1em" viewBox="0 0 65 140" fill="none" xmlns="http://www.w3.org/2000/svg">
<path d="M57.984 77.188C59.424 80.356 60.192 83.62 60.192 87.076C60.192 90.532 59.424 93.892 57.984 96.964C56.544 99.94 54.624 102.628 52.032 104.932C46.944 109.54 40.128 112.132 33.024 112.132C25.824 112.132 19.008 109.54 13.92 104.932C11.424 102.628 9.408 99.94 7.968 96.964C7.008 94.852 6.336 92.644 6.048 90.436C3.744 83.428 3.168 71.044 4.704 63.556C6.624 54.34 10.848 46.66 16.896 41.38C23.04 36.1 30.624 33.508 38.88 33.892C45.6 34.18 51.744 37.156 55.392 41.956C57.024 44.068 56.64 47.044 54.528 48.676C52.416 50.308 49.44 49.924 47.808 47.812C45.504 44.836 41.472 43.588 38.4 43.492C32.64 43.204 27.36 45.028 23.136 48.676C18.72 52.516 15.552 58.372 14.112 65.476C13.824 66.628 13.632 68.068 13.536 69.604C13.728 69.412 13.824 69.316 13.92 69.22C19.008 64.612 25.824 62.116 33.024 62.116C40.128 62.116 46.944 64.612 52.032 69.22C54.624 71.524 56.544 74.212 57.984 77.188ZM33.024 102.532C42.72 102.532 50.592 95.62 50.592 87.076C50.592 78.628 42.72 71.716 33.024 71.716C23.232 71.716 15.36 78.628 15.36 87.076C15.36 87.46 15.36 87.94 15.456 88.324C15.552 88.708 15.648 89.188 15.648 89.572C16.992 96.868 24.288 102.532 33.024 102.532Z" fill="currentColor"/>
</svg>

