<svg width="0.5143em" height="1em" viewBox="0 0 72 140" fill="none" xmlns="http://www.w3.org/2000/svg">
<path d="M50.976 110.884C48.384 110.884 46.176 108.676 46.176 106.084V93.028H8.64C6.816 93.028 5.088 91.876 4.32 90.244C3.456 88.516 3.84 86.5 4.992 85.06L47.424 36.388C48.672 34.852 50.784 34.372 52.704 35.044C54.528 35.716 55.776 37.54 55.776 39.556V83.428H62.976C65.568 83.428 67.776 85.54 67.776 88.228C67.776 90.82 65.568 93.028 62.976 93.028H55.776V106.084C55.776 108.676 53.664 110.884 50.976 110.884ZM19.2 83.428H46.176V52.324L19.2 83.428Z" fill="currentColor"/>
</svg>

