<svg width="0.4357em" height="1em" viewBox="0 0 61 140" fill="none" xmlns="http://www.w3.org/2000/svg">
<path d="M29.568 111.652C29.184 111.652 28.8 111.652 28.512 111.652C24.864 111.556 21.12 110.788 17.376 109.444C13.44 108.004 9.6 105.796 5.76 103.108C3.648 101.476 3.168 98.5 4.8 96.388C6.336 94.276 9.312 93.796 11.52 95.332C17.184 99.556 23.232 101.86 28.8 102.052C33.504 102.244 37.728 100.9 41.088 98.308C43.584 96.388 45.408 93.796 46.272 91.012C47.136 88.228 47.04 85.252 45.984 82.468C44.256 78.148 41.568 75.364 37.824 73.828C32.928 71.812 26.976 72.292 22.848 73.156C18.336 74.116 14.88 75.556 14.88 75.556C13.344 76.228 11.52 76.036 10.176 75.076C8.832 74.116 8.064 72.484 8.16 70.852L10.272 39.556C10.464 36.964 12.576 35.044 15.072 35.044H51.648C54.336 35.044 56.448 37.156 56.448 39.844C56.448 42.532 54.336 44.644 51.648 44.644H19.584L18.24 64.42C19.104 64.132 20.064 63.94 21.024 63.748C28.896 62.212 35.712 62.596 41.472 64.9C44.352 66.148 46.944 67.876 49.152 70.084C51.552 72.484 53.472 75.46 54.912 78.916C56.832 83.716 57.024 88.9 55.488 93.892C53.952 98.596 51.072 102.724 46.944 105.892C44.448 107.812 41.664 109.252 38.592 110.308C35.712 111.172 32.64 111.652 29.568 111.652Z" fill="currentColor"/>
</svg>

