<svg width="0.4357em" height="1em" viewBox="0 0 61 140" fill="none" xmlns="http://www.w3.org/2000/svg">
<path d="M28.416 111.556C27.936 111.556 27.552 111.556 27.264 111.556C26.88 111.46 26.592 111.46 26.4 111.46C25.632 111.46 21.792 111.172 17.088 109.156C11.904 107.044 7.584 103.492 4.608 99.076C3.168 96.868 3.744 93.892 5.952 92.356C8.16 90.916 11.136 91.492 12.576 93.7C14.592 96.676 17.28 98.884 20.832 100.324C24.096 101.764 26.784 101.86 26.784 101.86C27.168 101.86 27.552 101.956 27.936 101.956C28.608 101.956 31.2 101.956 34.368 101.092C36.864 100.516 40.32 99.268 42.816 96.868C45.216 94.66 46.368 91.876 46.368 88.324C46.368 84.676 45.312 81.892 43.008 79.78C39.936 76.9 35.136 75.748 31.68 75.268C27.648 74.788 24.384 74.98 24.192 74.98C22.272 75.172 20.352 74.116 19.488 72.388C18.624 70.564 18.912 68.452 20.256 67.012L40.608 44.644H11.04C8.352 44.644 6.24 42.532 6.24 39.844C6.24 37.156 8.352 35.044 11.04 35.044H51.456C53.376 35.044 55.104 36.196 55.872 37.924C56.64 39.652 56.352 41.668 55.008 43.108L34.176 65.956C40.608 67.012 45.792 69.22 49.44 72.676C51.552 74.5 53.088 76.804 54.24 79.3C55.392 81.988 55.968 84.964 55.968 88.324C55.968 91.588 55.392 94.564 54.144 97.348C52.992 99.844 51.456 102.052 49.44 103.972C42.624 110.212 32.64 111.556 28.416 111.556Z" fill="currentColor"/>
</svg>

